# xmcd
# Track frame offsets:
# 150
# 12764
# 26767
# 40673
# 52000
# 67122
# 79789
# 92189
# 107322
# 120288
# 131858
# 143959
# 157899
# 173092
#
# Disc length: 2481 seconds
# Revision: 0
# Processed by: cddbd v1.4PL0 Copyright (c) Steve Scherf et al.
# Submitted via: VisiTrax 2.9.3.171 - For more info visit www.synapsa.com
#
DISCID=b109af0e
DTITLE=Lena Horne - Cocktail Hour - Lena Horne [CDTwo)
DYEAR=1900
DGENRE=
TTITLE0=Old Fashioned Love
TTITLE1=Hesitating Blues
TTITLE2=Just Squeeze Me
TTITLE3='Deed I Do
TTITLE4=Take Love Easy
TTITLE5=Whispering
TTITLE6=At Long Last Love
TTITLE7=The Man I Love
TTITLE8=I Feel So Smoochie
TTITLE9=I Don't Want to Cry Anymore
TTITLE10=Glad to be Unhappy
TTITLE11=I Didn't Know About You
TTITLE12=One For My Baby
TTITLE13=I Ain't Got Nothin' But The Blues
EXTD=
EXTT0=
EXTT1=
EXTT2=
EXTT3=
EXTT4=
EXTT5=
EXTT6=
EXTT7=
EXTT8=
EXTT9=
EXTT10=
EXTT11=
EXTT12=
EXTT13=
PLAYORDER=
